<?xml version="1.0" standalone="no"?>
<!DOCTYPE svg PUBLIC "-//W3C//DTD SVG 20010904//EN"
 "http://www.w3.org/TR/2001/REC-SVG-20010904/DTD/svg10.dtd">
<svg version="1.0" xmlns="http://www.w3.org/2000/svg"
 width="500.000000pt" height="500.000000pt" viewBox="0 0 500.000000 500.000000"
 preserveAspectRatio="xMidYMid meet">
<metadata>
Created by potrace 1.14, written by Peter Selinger 2001-2017
</metadata>
<g transform="translate(0.000000,500.000000) scale(0.100000,-0.100000)"
fill="#000000" stroke="none">
<path d="M0 2500 l0 -2500 2500 0 2500 0 0 2500 0 2500 -2500 0 -2500 0 0
-2500z m2790 1576 c295 -49 532 -156 668 -300 123 -130 137 -279 36 -393 -101
-114 -339 -167 -464 -103 -55 28 -75 66 -95 174 -29 162 -84 245 -201 302 -52
26 -72 29 -169 32 -99 4 -117 1 -178 -22 -124 -47 -212 -125 -265 -238 -43
-89 -55 -154 -50 -267 7 -154 51 -226 196 -319 102 -66 153 -91 442 -217 254
-110 333 -150 435 -219 169 -113 296 -287 347 -475 31 -112 30 -298 0 -406
-61 -215 -203 -413 -382 -535 -126 -85 -256 -137 -434 -172 -146 -29 -425 -31
-595 -4 -134 20 -328 82 -418 132 -159 89 -317 236 -373 348 -67 133 -21 240
153 357 75 50 123 62 220 57 63 -4 90 -11 145 -39 l67 -34 7 -90 c10 -109 27
-166 77 -242 73 -114 193 -189 322 -203 297 -33 595 154 664 416 19 73 20 222
2 289 -55 199 -143 262 -742 537 -349 160 -523 297 -616 487 -50 101 -69 188
-69 315 0 164 36 291 124 441 49 84 179 217 258 263 119 70 278 121 440 142
96 12 341 5 448 -14z"/>
</g>
</svg>
